<svg width="153" height="110" viewBox="0 0 153 110" fill="none" xmlns="http://www.w3.org/2000/svg">
<path d="M150.628 110L127.004 86.8515C124.104 84.0097 120.227 82.6691 116.182 82.2309L144.522 110H128.805L102.67 84.3914C94.7585 76.6392 83.7751 74.6931 75.1518 78.1575C73.1228 78.9726 70.7994 78.5137 69.2327 76.9785L26.5228 35.1289C25.5826 34.2076 25.0058 33.0553 24.7942 31.8506L20.7914 27.9285L11.8569 37.0467L15.8597 40.9688C17.0684 41.1558 18.2321 41.7091 19.1724 42.6304L61.795 84.3945C63.3778 85.9455 63.8765 88.2889 63.072 90.3458C60.7064 96.3939 61.0052 103.564 64.0676 110H52.265C50.1528 103.408 49.9178 96.4097 51.6682 89.8722L13.1861 52.1652C11.9774 51.9781 10.8136 51.4249 9.87336 50.5036L2.85094 43.6226C-0.473109 40.3655 -1.18766 34.6423 2.52684 30.8515L14.4077 18.7264C18.1222 14.9356 23.8587 15.5335 27.1828 18.7906L34.2052 25.6716C35.1455 26.5929 35.7223 27.7452 35.9338 28.9499L74.5313 66.77C76.835 66.1267 79.1996 65.7301 81.5866 65.5763C62.6632 43.642 56.4449 18.3935 68.0027 6.59807C80.7577 -6.41908 110.334 1.87521 134.062 25.1252C134.303 25.3618 134.544 25.5986 134.782 25.8363C135.002 26.0545 135.221 26.2737 135.437 26.4944C141.726 32.6453 144.679 40.9793 144.342 49.3951C144.111 55.1395 145.245 61.1637 149.351 65.1873L153 68.7627V84.1632L141.652 73.0442C134.281 65.8211 133.07 55.9599 133.351 48.9545C133.573 43.3984 131.636 38.1632 127.745 34.3583L127.66 34.2745L127.576 34.1889C127.405 34.0148 127.227 33.8352 127.037 33.6473L127.028 33.6386L127.019 33.6298C126.809 33.4199 126.591 33.2053 126.363 32.9821C115.562 22.3984 103.802 15.6167 93.947 12.8528C83.6505 9.96509 78.122 11.9878 75.8596 14.2967C73.5972 16.6056 71.6874 22.1741 74.784 32.4098C77.7477 42.2064 84.7673 53.826 95.5685 64.4097C96.0145 64.8466 96.4173 65.2374 96.8067 65.604L96.8906 65.683L96.9728 65.7638C100.746 69.4681 105.825 71.2978 111.198 71.0946C118.009 70.837 127.549 71.9848 134.702 78.9946L153 96.9236V110H150.628Z" fill="#403233"/>
</svg>
