<svg width="163" height="112" viewBox="0 0 163 112" fill="none" xmlns="http://www.w3.org/2000/svg">
<path fill-rule="evenodd" clip-rule="evenodd" d="M85.9381 112C86.6021 100.519 81.8202 88.9108 72.087 81.2741C60.1437 71.9033 44.1655 71.1963 31.7265 78.2391L22.3519 70.8837C16.3469 66.1722 7.65946 67.2207 2.94791 73.2257C-1.76366 79.2306 -0.715113 87.9181 5.28985 92.6297L14.6645 99.9851C13.5547 103.919 13.1293 107.983 13.3667 112H24.3942C23.873 105.838 25.5917 99.4721 29.7099 94.2234C38.3509 83.2103 54.2838 81.2873 65.2969 89.9283C72.2667 95.3968 75.5957 103.786 74.9105 112H85.9381ZM163 66.857L125.617 2.7309C124.088 0.109154 120.725 -0.779221 118.101 0.745713C94.4433 14.4957 74.6938 34.0553 60.7154 57.5796C59.1652 60.1884 60.0209 63.5597 62.6275 65.1135L141.285 112H162.769L73.0641 58.5286C84.8668 40.2294 100.518 24.7283 118.931 13.1032L163 88.6982V66.857ZM103.479 59.2353C98.6851 54.3332 98.932 46.8976 103.311 42.6153C107.689 38.3331 115.129 38.252 119.923 43.154C124.717 48.0561 124.47 55.4917 120.091 59.7739C115.712 64.0562 108.273 64.1373 103.479 59.2353ZM95.6148 66.9263C86.7333 57.8447 86.7355 43.4394 95.6197 34.751C104.504 26.0626 118.906 26.3814 127.787 35.463C136.669 44.5445 136.666 58.9499 127.782 67.6383C118.898 76.3266 104.496 76.0079 95.6148 66.9263ZM19.3997 89.7186C19.918 88.9423 20.47 88.1799 21.0558 87.4333C21.6416 86.6866 22.2508 85.9692 22.8815 85.281L15.5618 79.5379C14.3363 78.5764 12.5635 78.7904 11.6021 80.0158C10.6406 81.2412 10.8545 83.014 12.08 83.9755L19.3997 89.7186Z" fill="#403233"/>
</svg>
