<svg width="154" height="141" viewBox="0 0 154 141" fill="none" xmlns="http://www.w3.org/2000/svg">
<path d="M4.15186 121.748C3.04692 124.956 1.65256 128.03 0 130.937V110.748H32.1612C34.2224 110.748 35.908 109.024 35.8144 106.879C34.9409 87.1743 43.1118 67.639 59.2632 54.5199L64.1907 50.5174L74.5899 67.896L71.0874 70.9165C61.731 78.9853 55.8175 90.9471 55.919 104.301L55.919 104.304C56.0296 119.761 64.2628 133.365 76.5073 141H59.4167C52.3256 133.317 47.4022 123.593 45.6372 112.84C43.4066 118.056 38.2475 121.748 32.1612 121.748H4.15186Z" fill="#403233"/>
<path fill-rule="evenodd" clip-rule="evenodd" d="M139.074 141C148.127 131.17 153.619 117.987 153.498 103.531L153.498 103.522C153.201 73.9037 129.108 49.7126 99.5533 49.4993L99.5507 49.4993C94.8287 49.4675 90.2575 50.0323 85.8806 51.1445L80.4983 42.1245H102.22C110.349 42.1245 116.868 35.5438 116.868 27.4372V15.1874C116.868 7.08072 110.349 0.5 102.22 0.5H84.953C80.7997 0.5 76.8321 2.27394 74.0723 5.35359L74.0708 5.35521L64.7627 15.7502L59.8939 7.60059L59.8822 7.58153C57.2195 3.20562 52.4769 0.5 47.3317 0.5H16.8382C10.4241 0.5 5.2395 5.7409 5.2395 12.1249V18.2498C5.2395 24.6338 10.4241 29.8747 16.8382 29.8747H39.0269L39.7735 31.1245H0V42.1245H59.1589L45.2687 18.8747H16.8382C16.6985 18.8747 16.5555 18.8225 16.4284 18.6948C16.3009 18.5667 16.2395 18.4123 16.2395 18.2498V12.1249C16.2395 11.9624 16.3009 11.808 16.4284 11.6799C16.5555 11.5522 16.6985 11.5 16.8382 11.5H47.3317C48.5843 11.5 49.7827 12.157 50.4757 13.284L50.4852 13.2996L61.1342 31.1245H61.125L80.9247 64.3061L85.1567 62.8361C89.6325 61.2814 94.4221 60.465 99.4766 60.4991C122.979 60.6701 142.262 79.9651 142.499 103.632C142.627 119.421 134.391 133.273 121.992 141H139.074ZM82.2641 12.6948L65.7615 31.1245H102.22C104.23 31.1245 105.868 29.5132 105.868 27.4372V15.1874C105.868 13.1113 104.23 11.5 102.22 11.5H84.953C83.9231 11.5 82.9363 11.9457 82.2656 12.6931L82.2641 12.6948Z" fill="#403233"/>
<path fill-rule="evenodd" clip-rule="evenodd" d="M99.1635 67.9122C119.722 67.8698 136.195 85.1977 135.119 105.967L135.118 105.979C134.13 124.295 119.416 139.119 101.145 140.077C80.3781 141.207 63.1771 124.563 63.1771 103.998C63.1771 94.3442 66.9572 85.5711 73.1213 79.1094L78.1151 73.8745L100.661 111.643L100.669 111.656C100.799 111.877 101.159 112.029 101.499 111.831L101.505 111.827L106.716 108.695L106.727 108.688C106.839 108.622 106.932 108.512 106.976 108.333C107.021 108.15 106.997 107.961 106.902 107.795L106.897 107.787L84.4396 70.2439L91.967 68.6447C94.3612 68.1361 96.7652 67.9126 99.1635 67.9122ZM124.133 105.397C124.825 92.051 115.167 80.8411 102.577 79.1364L116.364 102.185L116.373 102.2C119.576 107.634 117.933 114.813 112.363 118.135L112.349 118.143L107.139 121.275L107.127 121.282C101.681 124.521 94.5041 122.841 91.2012 117.257L91.1928 117.242L76.7086 92.9788C75.0867 96.2982 74.1771 100.036 74.1771 103.998C74.1771 118.345 86.1728 129.876 100.549 129.093L100.562 129.092C113.157 128.436 123.44 118.156 124.133 105.397Z" fill="#403233"/>
</svg>
