<svg width="411" height="411" viewBox="0 0 411 411" fill="none" xmlns="http://www.w3.org/2000/svg">
<circle cx="205.5" cy="205.5" r="205.5" fill="#F56E35"/>
<path d="M168.223 234.091C160.497 230.852 153.737 226.354 147.942 220.598C142.263 214.718 137.853 207.818 134.712 199.899C131.571 191.859 130 183.099 130 173.619C130 164.379 131.631 155.859 134.893 148.059C138.155 140.14 142.747 133.3 148.667 127.54C154.587 121.66 161.534 117.1 169.508 113.86C177.482 110.62 186.121 109 195.424 109C201.465 109 207.385 109.84 213.185 111.52C219.105 113.08 224.481 115.42 229.314 118.54C234.268 121.66 238.496 125.38 242 129.7L224.965 148.419C222.186 145.539 219.226 143.079 216.084 141.039C212.943 138.88 209.62 137.26 206.117 136.18C202.734 134.98 199.109 134.38 195.243 134.38C190.048 134.38 185.154 135.34 180.563 137.26C176.093 139.18 172.166 141.879 168.783 145.359C165.4 148.719 162.682 152.859 160.628 157.779C158.695 162.579 157.728 167.919 157.728 173.799C157.728 179.799 158.695 185.259 160.628 190.179C162.457 194.72 164.988 198.67 168.223 202.029V234.091Z" fill="#F9F4E9"/>
<path fill-rule="evenodd" clip-rule="evenodd" d="M207.477 197.33L207.477 211.976C207.931 211.859 208.384 211.733 208.835 211.598C209.377 211.437 209.911 211.266 210.44 211.086C210.923 210.907 211.404 210.718 211.881 210.518C216.352 208.598 220.278 205.898 223.661 202.419C225.353 200.739 226.878 198.864 228.237 196.794C229.597 194.724 230.79 192.459 231.817 189.999C231.976 189.603 232.129 189.204 232.275 188.801L232.281 188.786C232.469 188.267 232.646 187.742 232.812 187.211C234.706 181.161 239.176 175.79 245.073 174.409C245.404 174.451 245.733 174.495 246.06 174.542C247.26 174.231 248.513 174.069 249.814 174.077L262.445 174.159C262.445 176.147 262.369 178.102 262.218 180.023C265.825 182.205 268.699 184.969 270.84 188.314C273.84 193.003 275.34 198.593 275.34 205.084C275.34 212.297 273.54 218.307 269.94 223.116C267.374 226.542 264.016 229.206 259.866 231.106C263.197 232.351 266.195 233.955 268.86 235.918C273.06 238.924 276.3 242.65 278.58 247.098C280.86 251.546 282 256.595 282 262.245C282 268.496 280.98 274.025 278.94 278.834C276.9 283.522 273.9 287.429 269.94 290.555C265.98 293.68 261.299 296.084 255.899 297.767C250.619 299.33 244.679 300.111 238.078 300.111H181.556V173.889H224.623C222.552 176.944 221.038 180.19 220.087 183.228C219.903 183.817 219.7 184.388 219.479 184.942C218.027 188.395 216.25 190.987 214.266 192.958L214.183 193.041L214.101 193.125C212.448 194.825 210.614 196.219 208.558 197.33H207.477ZM226.477 276.67C215.983 276.67 207.477 268.164 207.477 257.67V246.557H236.098C240.058 246.557 243.418 247.158 246.179 248.36C249.059 249.442 251.279 251.065 252.839 253.229C254.399 255.393 255.179 258.037 255.179 261.163C255.179 264.409 254.459 267.234 253.019 269.638C251.579 272.042 249.479 273.845 246.719 275.047C244.079 276.129 240.838 276.67 236.998 276.67H226.477Z" fill="#F9F4E9"/>
</svg>
