<svg width="152" height="145" viewBox="0 0 152 145" fill="none" xmlns="http://www.w3.org/2000/svg">
<path fill-rule="evenodd" clip-rule="evenodd" d="M58.2171 0.5C42.9225 0.5 30.5016 12.873 30.5016 28.1631C30.5016 43.4532 42.9225 55.8262 58.2171 55.8262C73.5116 55.8262 85.9325 43.4532 85.9325 28.1631C85.9325 12.873 73.5116 0.5 58.2171 0.5ZM41.5016 28.1631C41.5016 18.9725 48.9732 11.5 58.2171 11.5C67.461 11.5 74.9325 18.9725 74.9325 28.1631C74.9325 37.3536 67.461 44.8262 58.2171 44.8262C48.9732 44.8262 41.5016 37.3536 41.5016 28.1631Z" fill="#403233"/>
<path fill-rule="evenodd" clip-rule="evenodd" d="M13.5 127.905V145H24.5V96.4862C24.5 83.9233 34.7119 73.7169 47.336 73.7169H59.9983C62.0985 73.7169 64.0659 74.7246 65.2879 76.4172L95.4906 118.25C96.5245 119.682 98.1834 120.531 99.9498 120.531H111.262C114.3 120.531 116.762 118.068 116.762 115.031V107.04L140.5 107.378V129.653L96.0264 129.275L96.0162 129.275C93.9347 129.262 91.989 128.259 90.7754 126.583L70.6058 98.7298C69.2074 96.7986 66.7239 95.9884 64.4557 96.7234C62.1875 97.4585 60.6512 99.5712 60.6512 101.956V145H71.6512V118.928L81.8661 133.034C85.1359 137.55 90.3628 140.236 95.937 140.275L95.9432 140.275L145.953 140.7C147.42 140.712 148.831 140.139 149.873 139.106C150.914 138.073 151.5 136.667 151.5 135.2V101.956C151.5 98.9485 149.085 96.4989 146.078 96.4561L111.34 95.9621C109.868 95.9412 108.449 96.5113 107.401 97.5449C106.352 98.5785 105.762 99.9893 105.762 101.462V109.531H102.763L74.2064 69.9782C70.9126 65.416 65.6248 62.7169 59.9983 62.7169H47.336C37.9262 62.7169 29.4085 66.5524 23.2729 72.7457C20.9235 75.1172 18.8545 77.7504 16.7853 80.384C14.8546 82.8413 12.9236 85.2988 10.7646 87.544L2.24898 96.3997C1.38814 97.2949 0.640168 98.2362 0 99.2115V119.534C2.84217 124.011 7.55599 127.314 13.5 127.905ZM13.5 100.862L10.23 104.263C6.22962 108.423 8.40904 115.106 13.5 116.476V100.862Z" fill="#403233"/>
</svg>
