<svg width="171" height="107" viewBox="0 0 171 107" fill="none" xmlns="http://www.w3.org/2000/svg">
<path fill-rule="evenodd" clip-rule="evenodd" d="M95.7254 107L64.701 43.5377C63.3669 40.8088 60.0732 39.678 57.3443 41.0121C40.0723 49.4558 25.2655 62.2048 14.3502 78.0312C8.17795 86.9806 3.36761 96.7435 0.0351425 107H11.6685C14.5898 98.9912 18.5256 91.3519 23.4054 84.2765C32.2052 71.5174 43.8097 60.9764 57.3001 53.4446L63.5754 66.2813C53.0668 73.7921 43.8982 83.0928 36.5117 93.8028C33.5952 98.0315 30.9828 102.442 28.6867 107H41.1788C42.5435 104.629 44.0069 102.31 45.5669 100.048C47.0746 97.862 48.6646 95.7411 50.3323 93.6892C56.667 98.4931 65.1016 100.377 73.3508 98.0473C75.0488 97.5678 76.6626 96.9305 78.1798 96.1555L83.4813 107H95.7254ZM148.37 107H113.938L95.7035 6.48179C95.3488 4.52657 96.0763 2.53208 97.6066 1.26447C99.1369 -0.00314496 101.232 -0.346728 103.087 0.365702L171 26.448V54.8623C166.377 60.5571 161.188 65.8058 155.495 70.5213C145.476 78.8206 134.125 85.2794 121.971 89.6515L124.521 103.71C139.551 100.129 153.583 93.1382 165.519 83.251C167.409 81.686 169.237 80.0558 171 78.3644V92.9721C164.017 98.5513 156.416 103.254 148.37 107ZM116.035 56.9325L108.272 14.1405L116.51 17.304C116.321 18.5197 116.223 19.7637 116.223 21.0281C116.223 34.3551 127.027 45.1588 140.354 45.1588C148.817 45.1588 156.254 40.804 160.56 34.2218L169.73 37.7434C164.017 46.8981 156.852 55.1137 148.478 62.0501C146.433 63.7441 144.327 65.3531 142.164 66.8744C137.374 60.5297 129.768 56.4244 121.197 56.4244C119.432 56.4244 117.706 56.5991 116.035 56.9325ZM140.354 34.1588C133.233 34.1588 127.437 28.4911 127.229 21.4209L149.843 30.1058C147.45 32.6053 144.08 34.1588 140.354 34.1588ZM132.772 72.739C128.651 75.0086 124.375 76.9874 119.977 78.6608L117.999 67.7588C119.028 67.5398 120.097 67.4244 121.197 67.4244C125.821 67.4244 129.971 69.4828 132.772 72.739ZM57.7768 85.4928C61.1266 82.1885 64.7035 79.1221 68.4812 76.3164L73.3475 86.2706C72.4166 86.761 71.419 87.1626 70.3612 87.4614C65.911 88.7182 61.3574 87.8652 57.7768 85.4928Z" fill="#403233"/>
</svg>
