<svg width="150" height="110" viewBox="0 0 150 110" fill="none" xmlns="http://www.w3.org/2000/svg">
<path fill-rule="evenodd" clip-rule="evenodd" d="M150 78.2209L84.0581 7.08723C76.3611 -1.21579 63.3905 -1.70705 55.0875 5.98996L52.0808 8.77717C51.7439 8.65402 51.3899 8.56219 51.0218 8.50565L44.4391 7.49463C39.7642 6.77661 35.0172 8.23239 31.5486 11.4479L12.4416 29.1603C8.97297 32.3758 7.16229 36.999 7.52463 41.7149L8.03483 48.3551C8.06336 48.7265 8.12815 49.0864 8.22546 49.4317L7.41889 50.1794C-0.88412 57.8764 -1.37539 70.847 6.32162 79.15L34.92 110H49.9194L14.3886 71.6718C10.8217 67.824 11.0494 61.8133 14.8971 58.2464L62.5657 14.0569C66.4134 10.49 72.4242 10.7177 75.9911 14.5654L150 94.4013V78.2209ZM41.7809 18.3253C40.7636 18.3945 39.7889 18.8083 39.0268 19.5148L19.9198 37.2273C19.1577 37.9338 18.6712 38.8744 18.5253 39.8836L41.7809 18.3253Z" fill="#403233"/>
<path d="M144.94 110C144.842 106.857 143.652 103.734 141.347 101.247L78.8015 33.7775C73.7327 28.3096 65.1911 27.9861 59.7233 33.0549C54.2555 38.1236 53.9319 46.6652 59.0007 52.1331L112.644 110H127.644L67.0677 44.6549C66.129 43.6423 66.1889 42.0605 67.2015 41.1219C68.2141 40.1832 69.7958 40.2431 70.7345 41.2557L133.28 108.725C133.622 109.094 133.831 109.539 133.91 110H144.94Z" fill="#403233"/>
<path d="M100.372 110L52.4004 58.2516C47.3317 52.7838 38.7901 52.4603 33.3222 57.529C27.8544 62.5978 27.5309 71.1394 32.5996 76.6072L63.5552 110H78.5546L40.6666 69.129C39.728 68.1164 39.7879 66.5347 40.8004 65.596C41.813 64.6573 43.3948 64.7173 44.3334 65.7298L85.3725 110H100.372Z" fill="#403233"/>
</svg>
